<?xml version="1.0" encoding="UTF-8"?>
<svg id="Layer_2" data-name="Layer 2" xmlns="http://www.w3.org/2000/svg" viewBox="0 0 431.77 353.01">
  <defs>
    <style>
      .cls-1 {
        fill: #ffb200;
      }

      .cls-1, .cls-2 {
        stroke-width: 0px;
      }

      .cls-2 {
        fill: #fff;
      }
    </style>
  </defs>
  <g id="Layer_1-2" data-name="Layer 1">
    <g>
      <path class="cls-2" d="M265.74,53.4l158.56,149.22-79.29,28.86-53.34-50.21-105.23-99.01,79.3-28.86M266.69,48.8l-87.72,31.92,109.96,103.46,55.13,51.9,87.71-31.93L266.69,48.8h0Z"/>
      <g>
        <polygon class="cls-1" points="266.69 0 178.97 31.93 234.1 83.82 321.82 51.9 266.69 0"/>
        <polygon class="cls-2" points="288.93 184.22 197.78 217.4 142.84 165.69 233.9 132.42 178.97 80.72 0 145.72 220.22 353.01 307.93 321.08 252.91 269.29 344.06 236.11 288.93 184.22"/>
        <polygon class="cls-1" points="344.06 204.4 431.77 172.47 321.61 68.78 233.9 100.7 288.93 152.5 344.06 204.4"/>
      </g>
    </g>
  </g>
</svg>