<?xml version="1.0" encoding="UTF-8"?>
<svg id="Layer_2" data-name="Layer 2" xmlns="http://www.w3.org/2000/svg" xmlns:xlink="http://www.w3.org/1999/xlink" viewBox="0 0 3432.33 2021.78">
  <defs>
    <style>
      .cls-1 {
        fill: none;
      }

      .cls-1, .cls-2, .cls-3, .cls-4 {
        stroke-width: 0px;
      }

      .cls-2 {
        fill: #277bc0;
      }

      .cls-3 {
        fill: #ffb200;
      }

      .cls-4 {
        fill: url(#PI-pattern);
      }
    </style>
    <pattern id="PI-pattern" x="0" y="0" width="61.3" height="100.23" patternTransform="translate(1695.39 -3108.31)" patternUnits="userSpaceOnUse" viewBox="0 0 61.3 100.23">
      <g>
        <rect class="cls-1" width="61.3" height="100.23"/>
        <g>
          <path class="cls-2" d="M67.56,86.7l-4.03,1.47,10.88,10.24,6.03,5.68,4.03-1.47-16.91-15.92M68.51,82.1l23.44,22.06-12.45,4.53-7.83-7.37-15.61-14.69,12.45-4.53h0Z"/>
          <g>
            <polygon class="cls-3" points="68.51 75.17 56.06 79.7 63.88 87.07 76.34 82.54 68.51 75.17"/>
            <polygon class="cls-2" points="71.67 101.32 58.73 106.04 50.93 98.69 63.85 93.97 56.06 86.63 30.65 95.86 61.91 125.29 74.36 120.75 66.55 113.4 79.49 108.69 71.67 101.32"/>
          </g>
        </g>
        <g>
          <path class="cls-2" d="M6.26,86.7l-4.03,1.47,10.88,10.24,6.03,5.68,4.03-1.47-16.91-15.92M7.21,82.1l23.44,22.06-12.45,4.53-7.83-7.37-15.61-14.69,12.45-4.53h0Z"/>
          <g>
            <polygon class="cls-3" points="7.21 75.17 -5.24 79.7 2.59 87.07 15.04 82.54 7.21 75.17"/>
            <polygon class="cls-2" points="10.37 101.32 -2.57 106.04 -10.37 98.69 2.56 93.97 -5.24 86.63 -30.65 95.86 .61 125.29 13.07 120.75 5.26 113.4 18.2 108.69 10.37 101.32"/>
            <polygon class="cls-3" points="18.2 104.19 30.65 99.66 15.01 84.94 2.56 89.47 10.37 96.82 18.2 104.19"/>
          </g>
        </g>
        <g>
          <path class="cls-2" d="M36.91,36.59l-4.03,1.47,10.88,10.24,6.03,5.68,4.03-1.47-16.91-15.92M37.86,31.99l23.44,22.06-12.45,4.53-7.83-7.37-15.61-14.69,12.45-4.53h0Z"/>
          <g>
            <polygon class="cls-3" points="37.86 25.06 25.41 29.59 33.23 36.96 45.69 32.42 37.86 25.06"/>
            <polygon class="cls-2" points="41.02 51.21 28.08 55.92 20.28 48.58 33.2 43.86 25.41 36.52 0 45.74 31.26 75.17 43.72 70.64 35.9 63.29 48.84 58.58 41.02 51.21"/>
            <polygon class="cls-3" points="48.84 54.07 61.3 49.54 45.66 34.82 33.2 39.35 41.02 46.71 48.84 54.07"/>
          </g>
        </g>
        <g>
          <path class="cls-2" d="M67.56-13.53l-4.03,1.47,10.88,10.24,6.03,5.68,4.03-1.47-16.91-15.92M68.51-18.13L91.95,3.93l-12.45,4.53-7.83-7.37-15.61-14.69,12.45-4.53h0Z"/>
          <polygon class="cls-2" points="71.67 1.1 58.73 5.81 50.93 -1.54 63.85 -6.26 56.06 -13.6 30.65 -4.37 61.91 25.06 74.36 20.53 66.55 13.17 79.49 8.46 71.67 1.1"/>
        </g>
        <g>
          <path class="cls-2" d="M6.26-13.53l-4.03,1.47L13.11-1.82l6.03,5.68,4.03-1.47L6.26-13.53M7.21-18.13L30.65,3.93l-12.45,4.53L10.37,1.09-5.24-13.6l12.45-4.53h0Z"/>
          <g>
            <polygon class="cls-2" points="10.37 1.1 -2.57 5.81 -10.37 -1.54 2.56 -6.26 -5.24 -13.6 -30.65 -4.37 .61 25.06 13.07 20.53 5.26 13.17 18.2 8.46 10.37 1.1"/>
            <polygon class="cls-3" points="18.2 3.96 30.65 -.57 15.01 -15.29 2.56 -10.76 10.37 -3.41 18.2 3.96"/>
          </g>
        </g>
      </g>
    </pattern>
  </defs>
  <g id="Layer_1-2" data-name="Layer 1">
    <rect class="cls-4" width="3432.33" height="2021.78"/>
  </g>
</svg>